<?xml version="1.0" encoding="UTF-8"?>
<svg xmlns="http://www.w3.org/2000/svg" xmlns:xlink="http://www.w3.org/1999/xlink" width="24px" height="24px" viewBox="0 0 24 24" version="1.1">
<g id="surface1">
<path style=" stroke:none;fill-rule:nonzero;fill:rgb(16.078431%,66.27451%,96.470588%);fill-opacity:1;" d="M 0 0 C 7.921875 0 15.839844 0 24 0 C 24 7.921875 24 15.839844 24 24 C 16.078125 24 8.160156 24 0 24 C 0 16.078125 0 8.160156 0 0 Z M 0 0 "/>
<path style=" stroke:none;fill-rule:nonzero;fill:rgb(99.607843%,99.607843%,99.607843%);fill-opacity:1;" d="M 11.785156 2.449219 C 11.824219 2.449219 11.863281 2.449219 11.902344 2.449219 C 13.980469 2.460938 15.949219 3.03125 17.628906 4.285156 C 17.679688 4.320312 17.726562 4.355469 17.777344 4.394531 C 19.78125 5.949219 21.035156 8.125 21.449219 10.617188 C 21.476562 10.832031 21.484375 11.046875 21.484375 11.261719 C 21.484375 11.304688 21.484375 11.347656 21.484375 11.390625 C 21.5 13.136719 21.5 13.136719 21.308594 13.949219 C 21.292969 14.023438 21.292969 14.023438 21.277344 14.09375 C 21.109375 14.816406 20.871094 15.484375 20.539062 16.144531 C 20.523438 16.183594 20.503906 16.21875 20.488281 16.257812 C 19.40625 18.457031 17.390625 20.15625 15.082031 20.953125 C 14.707031 21.074219 14.335938 21.175781 13.949219 21.253906 C 13.894531 21.265625 13.894531 21.265625 13.835938 21.277344 C 12.617188 21.539062 11.148438 21.5625 9.941406 21.253906 C 9.875 21.238281 9.875 21.238281 9.804688 21.222656 C 9.101562 21.046875 8.449219 20.804688 7.796875 20.484375 C 7.761719 20.46875 7.726562 20.449219 7.6875 20.429688 C 7.15625 20.167969 6.675781 19.855469 6.207031 19.496094 C 6.15625 19.457031 6.105469 19.421875 6.054688 19.382812 C 5.105469 18.636719 4.335938 17.738281 3.734375 16.695312 C 3.699219 16.632812 3.664062 16.574219 3.625 16.511719 C 3.183594 15.738281 2.867188 14.875 2.691406 14.003906 C 2.675781 13.9375 2.660156 13.871094 2.648438 13.804688 C 2.117188 11.3125 2.695312 8.769531 4.0625 6.644531 C 4.402344 6.148438 4.804688 5.707031 5.21875 5.273438 C 5.261719 5.226562 5.304688 5.179688 5.347656 5.132812 C 6.171875 4.265625 7.210938 3.664062 8.292969 3.183594 C 8.34375 3.160156 8.394531 3.136719 8.445312 3.113281 C 8.8125 2.945312 9.191406 2.839844 9.582031 2.734375 C 9.65625 2.714844 9.65625 2.714844 9.738281 2.695312 C 10.417969 2.519531 11.082031 2.449219 11.785156 2.449219 Z M 11.785156 2.449219 "/>
<path style=" stroke:none;fill-rule:nonzero;fill:rgb(99.607843%,99.607843%,99.607843%);fill-opacity:1;" d="M 0 0 C 7.921875 0 15.839844 0 24 0 C 24 7.921875 24 15.839844 24 24 C 16.078125 24 8.160156 24 0 24 C 0 16.078125 0 8.160156 0 0 Z M 7.25 1.261719 C 7.175781 1.296875 7.101562 1.332031 7.027344 1.367188 C 5.402344 2.109375 3.898438 3.25 2.800781 4.667969 C 2.773438 4.703125 2.746094 4.738281 2.714844 4.777344 C 1.582031 6.257812 0.800781 7.945312 0.4375 9.777344 C 0.429688 9.816406 0.421875 9.855469 0.414062 9.898438 C -0.15625 12.789062 0.585938 15.996094 2.195312 18.433594 C 2.605469 19.03125 3.070312 19.578125 3.570312 20.101562 C 3.59375 20.128906 3.621094 20.15625 3.648438 20.183594 C 5.566406 22.203125 8.421875 23.539062 11.214844 23.625 C 14.738281 23.707031 17.746094 22.632812 20.320312 20.210938 C 20.355469 20.175781 20.394531 20.144531 20.429688 20.109375 C 22.554688 18.058594 23.675781 15.003906 23.746094 12.09375 C 23.757812 11.035156 23.644531 9.976562 23.339844 8.964844 C 23.285156 8.785156 23.238281 8.605469 23.195312 8.425781 C 22.34375 5.472656 20.101562 3.074219 17.464844 1.597656 C 17.195312 1.449219 16.921875 1.324219 16.640625 1.207031 C 16.601562 1.191406 16.558594 1.175781 16.515625 1.15625 C 15.820312 0.867188 15.125 0.664062 14.382812 0.519531 C 14.277344 0.496094 14.277344 0.496094 14.167969 0.4375 C 11.925781 -0.0195312 9.308594 0.242188 7.25 1.261719 Z M 7.25 1.261719 "/>
<path style=" stroke:none;fill-rule:nonzero;fill:rgb(16.078431%,66.27451%,96.470588%);fill-opacity:1;" d="M 12.59375 5.707031 C 13.191406 6.070312 13.441406 6.636719 13.714844 7.246094 C 13.753906 7.328125 13.792969 7.414062 13.832031 7.496094 C 13.910156 7.664062 13.984375 7.832031 14.0625 8 C 14.183594 8.269531 14.304688 8.535156 14.429688 8.800781 C 14.507812 8.972656 14.589844 9.148438 14.667969 9.320312 C 14.832031 9.675781 15 10.035156 15.164062 10.390625 C 15.371094 10.832031 15.574219 11.277344 15.78125 11.71875 C 15.800781 11.765625 15.820312 11.808594 15.84375 11.855469 C 15.925781 12.039062 16.011719 12.222656 16.097656 12.40625 C 16.316406 12.878906 16.535156 13.351562 16.753906 13.824219 C 16.773438 13.863281 16.789062 13.902344 16.808594 13.9375 C 16.890625 14.113281 16.972656 14.285156 17.050781 14.457031 C 17.191406 14.753906 17.328125 15.050781 17.457031 15.347656 C 17.488281 15.425781 17.488281 15.425781 17.523438 15.503906 C 17.632812 15.820312 17.613281 16.121094 17.519531 16.441406 C 17.359375 16.648438 17.21875 16.773438 16.96875 16.859375 C 16.574219 16.910156 16.144531 16.933594 15.796875 16.714844 C 15.359375 16.351562 15.164062 15.773438 14.9375 15.269531 C 14.914062 15.210938 14.914062 15.210938 14.886719 15.152344 C 14.609375 14.53125 14.609375 14.53125 14.609375 14.335938 C 12.027344 14.359375 12.027344 14.359375 9.390625 14.390625 C 9.15625 14.933594 8.921875 15.476562 8.675781 16.035156 C 8.246094 16.757812 8.246094 16.757812 7.910156 16.859375 C 7.488281 16.90625 7.125 16.921875 6.753906 16.695312 C 6.523438 16.480469 6.414062 16.28125 6.402344 15.96875 C 6.40625 15.527344 6.582031 15.179688 6.773438 14.789062 C 6.808594 14.710938 6.847656 14.632812 6.882812 14.554688 C 6.964844 14.386719 7.042969 14.21875 7.125 14.050781 C 7.25 13.78125 7.378906 13.511719 7.5 13.242188 C 7.523438 13.195312 7.542969 13.148438 7.566406 13.101562 C 7.609375 13.007812 7.652344 12.914062 7.695312 12.820312 C 7.804688 12.582031 7.917969 12.34375 8.027344 12.105469 C 8.285156 11.550781 8.542969 10.992188 8.800781 10.433594 C 8.820312 10.390625 8.839844 10.347656 8.863281 10.300781 C 9.113281 9.753906 9.363281 9.207031 9.613281 8.660156 C 9.746094 8.367188 9.878906 8.074219 10.011719 7.78125 C 10.074219 7.648438 10.132812 7.519531 10.191406 7.386719 C 10.269531 7.210938 10.351562 7.039062 10.429688 6.863281 C 10.453125 6.816406 10.476562 6.765625 10.496094 6.714844 C 10.699219 6.285156 11.003906 5.828125 11.460938 5.632812 C 11.84375 5.535156 12.230469 5.546875 12.59375 5.707031 Z M 12.59375 5.707031 "/>
<path style=" stroke:none;fill-rule:nonzero;fill:rgb(98.431373%,99.215686%,99.607843%);fill-opacity:1;" d="M 11.917969 8.347656 C 11.953125 8.347656 11.988281 8.347656 12.027344 8.347656 C 12.191406 8.726562 12.355469 9.101562 12.515625 9.480469 C 12.570312 9.609375 12.628906 9.738281 12.683594 9.863281 C 12.707031 9.925781 12.734375 9.988281 12.761719 10.050781 C 12.789062 10.113281 12.816406 10.175781 12.84375 10.238281 C 12.921875 10.421875 13.003906 10.605469 13.082031 10.792969 C 13.183594 11.027344 13.285156 11.257812 13.386719 11.492188 C 13.421875 11.574219 13.421875 11.574219 13.457031 11.652344 C 13.5 11.753906 13.542969 11.851562 13.585938 11.953125 C 13.605469 11.996094 13.625 12.039062 13.644531 12.085938 C 13.660156 12.125 13.675781 12.160156 13.695312 12.199219 C 13.730469 12.300781 13.730469 12.300781 13.730469 12.46875 C 12.570312 12.46875 11.410156 12.46875 10.214844 12.46875 C 10.414062 11.867188 10.632812 11.292969 10.902344 10.722656 C 10.984375 10.546875 11.054688 10.367188 11.121094 10.1875 C 11.234375 9.882812 11.367188 9.589844 11.507812 9.296875 C 11.617188 9.050781 11.714844 8.796875 11.808594 8.539062 C 11.863281 8.402344 11.863281 8.402344 11.917969 8.347656 Z M 11.917969 8.347656 "/>
</g>
</svg>
